<?xml version="1.0" standalone="no"?>
<!DOCTYPE svg PUBLIC "-//W3C//DTD SVG 20010904//EN"
 "http://www.w3.org/TR/2001/REC-SVG-20010904/DTD/svg10.dtd">
<svg version="1.0" xmlns="http://www.w3.org/2000/svg"
 width="400.000000pt" height="100.000000pt" viewBox="0 0 400.000000 100.000000"
 preserveAspectRatio="xMidYMid meet">

<g transform="translate(0.000000,100.000000) scale(0.100000,-0.100000)"
fill="#000000" stroke="none">
<path d="M1481 836 c-34 -8 -51 -20 -70 -48 -14 -20 -35 -38 -46 -40 -25 -4
-41 -52 -90 -266 -19 -86 -38 -167 -41 -180 -7 -24 2 -27 39 -13 21 8 27 22
42 85 9 42 19 76 23 76 4 0 25 -42 47 -92 45 -106 83 -153 140 -179 76 -35
183 -17 178 29 -2 15 2 20 11 16 32 -12 174 37 231 79 39 30 9 25 -60 -9 -73
-36 -120 -40 -166 -11 -30 19 -53 89 -46 145 19 158 118 295 224 309 47 6 69
-10 86 -59 l13 -36 34 28 c31 26 33 30 22 54 -8 18 -18 25 -35 24 -13 -1 -37
4 -55 11 -25 11 -41 11 -79 2 -51 -13 -122 -59 -123 -78 0 -7 -7 -13 -15 -13
-9 0 -19 -10 -24 -22 -5 -13 -12 -21 -17 -19 -14 7 -73 -97 -90 -158 -10 -34
-15 -77 -12 -119 4 -58 8 -68 36 -93 l32 -29 -20 -20 c-29 -29 -74 -26 -106 8
-25 26 -144 255 -144 278 0 16 85 84 104 84 8 0 18 -4 21 -10 11 -17 22 -11
43 22 23 37 10 58 -19 32 -10 -9 -26 -13 -41 -9 -20 5 -34 -4 -83 -57 -49 -51
-85 -78 -85 -64 0 2 14 57 31 122 44 168 54 184 116 184 23 0 52 23 53 43 0 8
2 8 -59 -7z"/>
<path d="M2750 843 c-34 -7 -73 -36 -90 -67 -10 -19 -16 -23 -21 -14 -11 17
-52 -78 -46 -103 3 -11 0 -19 -6 -19 -7 0 -5 -5 3 -10 11 -7 6 -9 -20 -8 -38
1 -110 -25 -110 -40 0 -5 -12 -14 -27 -21 -19 -9 -23 -15 -14 -20 9 -6 7 -10
-7 -13 -15 -4 -26 -24 -41 -73 -27 -85 -27 -146 -2 -169 17 -16 22 -15 82 26
l64 43 -3 -30 c-2 -19 2 -36 11 -43 11 -10 29 -3 91 38 42 27 76 54 76 60 0
14 -1 13 -53 -15 -25 -14 -48 -22 -51 -17 -6 10 51 276 79 370 21 68 47 95 84
87 23 -5 29 -1 39 20 12 27 12 27 -38 18z m-202 -262 c11 -6 11 -21 1 -77 -16
-97 -23 -110 -68 -140 -55 -36 -76 -27 -67 29 22 143 79 223 134 188z"/>
<path d="M3512 838 c-5 -7 -81 -134 -167 -283 -87 -148 -177 -300 -201 -337
-34 -53 -40 -68 -27 -72 8 -3 18 -4 23 -1 5 3 36 53 71 113 34 59 124 214 201
344 76 131 138 240 138 243 0 10 -28 5 -38 -7z"/>
<path d="M856 749 c-20 -16 -30 -19 -39 -10 -21 21 -64 12 -98 -21 -19 -18
-37 -31 -41 -30 -23 6 -52 -93 -39 -130 5 -14 10 -15 38 -3 30 13 31 16 30 69
-1 46 3 60 23 81 14 15 35 25 51 25 l27 0 -24 -92 c-12 -51 -30 -98 -38 -104
-11 -7 -12 -14 -5 -21 8 -8 5 -34 -10 -88 -41 -149 -85 -198 -170 -193 -35 2
-46 -1 -58 -19 -13 -20 -12 -22 16 -28 20 -4 45 0 76 14 65 29 160 105 178
143 8 18 36 116 61 217 26 102 51 191 57 198 18 21 -5 16 -35 -8z"/>
<path d="M541 694 c-1 -14 -66 -44 -97 -44 -14 0 -23 -4 -20 -9 3 -5 -27 -21
-68 -36 -40 -15 -88 -40 -105 -56 -36 -32 -49 -36 -57 -15 -8 20 -41 8 -48
-17 -7 -29 1 -35 168 -119 141 -71 161 -74 154 -27 -2 17 -12 25 -33 30 -50
10 -135 51 -135 64 0 7 -13 21 -29 32 l-30 18 146 60 c142 59 169 78 160 113
-3 9 -5 12 -6 6z"/>
<path d="M3535 669 c-9 -28 0 -36 129 -101 98 -49 98 -49 75 -66 -13 -9 -33
-24 -43 -34 -11 -10 -25 -18 -32 -18 -6 0 -36 -11 -65 -24 -30 -14 -69 -27
-88 -30 -18 -2 -37 -8 -41 -13 -13 -13 -22 -53 -13 -53 7 0 136 52 391 157 19
8 14 51 -7 62 -14 8 -22 7 -31 -5 -12 -13 -16 -12 -40 11 -14 14 -31 25 -37
25 -6 0 -13 3 -15 8 -1 4 -34 22 -73 41 -38 19 -77 40 -87 48 -14 13 -17 12
-23 -8z"/>
<path d="M1067 612 c-16 -2 -31 -10 -34 -18 -3 -8 -10 -14 -17 -14 -6 0 -17
-9 -24 -20 -7 -12 -17 -18 -22 -15 -5 3 -21 -15 -36 -41 -21 -35 -28 -63 -32
-118 -4 -63 -2 -73 17 -90 63 -57 218 27 261 140 24 66 27 146 4 168 -21 22
-27 20 -18 -6 6 -19 4 -21 -7 -11 -23 18 -61 29 -92 25z m47 -44 c48 -68 -22
-248 -96 -248 -52 0 -65 97 -24 186 37 79 89 106 120 62z"/>
<path d="M2160 602 c-14 -9 -29 -23 -33 -30 -5 -7 -19 -17 -32 -22 -34 -13
-77 -108 -79 -175 -1 -68 24 -100 78 -98 41 1 137 53 165 89 48 61 78 203 49
232 -17 17 -31 15 -24 -3 7 -19 -20 -20 -31 -2 -13 22 -65 27 -93 9z m74 -34
c47 -67 -24 -248 -97 -248 -36 0 -51 25 -50 84 1 62 32 136 68 164 35 28 60
28 79 0z"/>
<path d="M2925 610 c-3 -5 -25 -7 -51 -3 -40 5 -46 4 -51 -16 -3 -12 -15 -24
-28 -27 -45 -11 -99 -186 -75 -244 16 -39 52 -53 100 -39 49 15 134 79 138
104 3 20 3 20 -16 0 -47 -52 -132 -72 -152 -36 -20 39 -10 55 61 106 83 58 99
78 99 122 0 33 -14 51 -25 33z m-37 -49 c3 -17 -9 -35 -44 -69 -29 -27 -50
-40 -52 -33 -6 17 26 97 45 117 21 21 47 14 51 -15z"/>
</g>
</svg>
